<svg width="24" height="24" viewBox="0 0 24 24" fill="none" xmlns="http://www.w3.org/2000/svg">
<g clip-path="url(#clip0_1030_2271)">
<path d="M10.46 2.81999C11.07 2.81999 11.71 2.95999 12.29 2.94999L18.29 2.76999C19.2 2.76999 20.1 2.76999 21 2.70999C21.61 2.70999 22.22 2.63999 22.83 2.57999C22.9211 2.57232 23.0056 2.52932 23.0654 2.46017C23.1252 2.39103 23.1555 2.30123 23.15 2.20999C23.1399 2.1207 23.0959 2.03871 23.027 1.981C22.9581 1.92329 22.8697 1.89428 22.78 1.89999H21C20.11 1.89999 19.22 1.78999 18.31 1.72999C17.2874 1.67497 16.2626 1.67497 15.24 1.72999C14.24 1.79999 13.24 1.94999 12.24 2.07999C11.68 2.15999 11.06 2.07999 10.47 2.14999C10.1861 2.16235 9.90438 2.20594 9.63 2.27999C9.5883 2.28549 9.54822 2.2997 9.51237 2.3217C9.47652 2.3437 9.44569 2.37299 9.42189 2.40768C9.39809 2.44236 9.38186 2.48167 9.37423 2.52303C9.36661 2.5644 9.36777 2.60691 9.37764 2.6478C9.38751 2.68869 9.40587 2.72705 9.43152 2.76038C9.45718 2.79371 9.48956 2.82128 9.52656 2.84129C9.56356 2.8613 9.60435 2.8733 9.64629 2.87653C9.68823 2.87975 9.73038 2.87411 9.77 2.85999C9.99801 2.8229 10.2292 2.80949 10.46 2.81999Z" fill="black"/>
<path d="M10.37 12.23C10.7269 12.1703 11.0881 12.1402 11.45 12.14H13.15C13.71 12.14 14.49 12.19 15.15 12.19C16.15 12.19 17.15 12.14 18.15 12.12C19.15 12.1 20.26 11.84 21.33 11.78C21.7626 11.745 22.1974 11.745 22.63 11.78C22.7185 11.7918 22.8081 11.7694 22.8806 11.7174C22.9531 11.6654 23.003 11.5876 23.02 11.5C23.0271 11.4553 23.0252 11.4096 23.0143 11.3657C23.0035 11.3217 22.984 11.2803 22.957 11.244C22.93 11.2077 22.896 11.1771 22.857 11.1541C22.8181 11.1311 22.7749 11.1161 22.73 11.11C22.2739 11.0351 21.8123 10.9983 21.35 11C21.35 11 15.74 11.06 15.65 11.06C14.8 11.06 13.96 11.17 13.12 11.24C12.55 11.29 11.97 11.32 11.4 11.39C11.0054 11.4407 10.6145 11.5175 10.23 11.62C10.189 11.628 10.15 11.6445 10.1158 11.6685C10.0815 11.6924 10.0526 11.7233 10.0309 11.7591C10.0092 11.7949 9.9953 11.8348 9.98998 11.8763C9.98467 11.9178 9.98808 11.9599 10 12C10.0082 12.0399 10.0244 12.0778 10.0477 12.1113C10.071 12.1447 10.1009 12.1731 10.1355 12.1946C10.1702 12.2161 10.2088 12.2304 10.2491 12.2364C10.2894 12.2425 10.3306 12.2403 10.37 12.23Z" fill="black"/>
<path d="M23.2 20.36L19.67 20L17.78 19.82C17.14 19.82 16.5 19.75 15.87 19.75C15.0108 19.7568 14.1527 19.8136 13.3 19.92C12.64 20.01 11.95 20.03 11.3 20.12C10.9967 20.1573 10.6961 20.2141 10.4 20.29C10.3218 20.3072 10.2536 20.3549 10.2105 20.4224C10.1673 20.4899 10.1528 20.5718 10.17 20.65C10.1872 20.7282 10.2349 20.7964 10.3024 20.8396C10.3699 20.8827 10.4518 20.8972 10.53 20.88C10.8043 20.8331 11.0818 20.8063 11.36 20.8C12.03 20.8 12.72 20.85 13.36 20.8L19.6 20.96H22.08H23.08C23.1247 20.9646 23.1698 20.9604 23.2128 20.9475C23.2558 20.9347 23.2959 20.9135 23.3307 20.8852C23.3655 20.8568 23.3944 20.8219 23.4157 20.7824C23.4371 20.743 23.4504 20.6997 23.455 20.655C23.4596 20.6104 23.4554 20.5652 23.4425 20.5222C23.4297 20.4792 23.4085 20.4392 23.3802 20.4043C23.3519 20.3695 23.317 20.3406 23.2775 20.3193C23.238 20.2979 23.1947 20.2846 23.15 20.28L23.2 20.36Z" fill="black"/>
<path d="M3.69 5.09999C4.10448 5.16499 4.52878 5.11973 4.92022 4.96877C5.31167 4.8178 5.65648 4.56646 5.92 4.23999C6.21484 3.82315 6.3626 3.32006 6.34 2.80999C6.39207 2.31345 6.29838 1.81249 6.07039 1.36833C5.84239 0.924164 5.48996 0.556025 5.05615 0.308892C4.62234 0.0617597 4.12595 -0.0536657 3.62761 -0.0232807C3.12927 0.00710434 2.65057 0.181984 2.25 0.479991C1.95629 0.651053 1.70299 0.883542 1.50743 1.16155C1.31188 1.43956 1.17869 1.75653 1.11696 2.09078C1.05524 2.42503 1.06645 2.76866 1.14982 3.09818C1.23319 3.42769 1.38675 3.73531 1.6 3.99999C1.8585 4.31225 2.17627 4.57022 2.53499 4.75902C2.8937 4.94781 3.28626 5.0637 3.69 5.09999ZM2.8 1.23999C3.2 0.929991 5.43 -0.100009 5.51 2.51999C5.55043 2.9236 5.43605 3.32751 5.19 3.64999C5.01051 3.81716 4.79204 3.93676 4.5545 3.99789C4.31696 4.05903 4.06789 4.05975 3.83 3.99999C3.31967 3.94346 2.85062 3.69283 2.52 3.29999C2.392 3.15098 2.29705 2.97653 2.24138 2.78815C2.18572 2.59976 2.17062 2.40172 2.19708 2.20707C2.22354 2.01242 2.29095 1.82559 2.39487 1.6589C2.4988 1.49221 2.63688 1.34943 2.8 1.23999Z" fill="black"/>
<path d="M2.11001 9.71C1.42694 10.1422 0.917298 10.8005 0.670009 11.57C0.580194 11.9307 0.563118 12.3058 0.619776 12.6732C0.676434 13.0406 0.805692 13.3931 1.00001 13.71C1.39428 14.3377 2.00699 14.7973 2.72001 15C2.95579 15.0562 3.19763 15.0831 3.44001 15.08C3.66855 15.0728 3.89605 15.0461 4.12001 15C4.80449 14.8498 5.41731 14.4708 5.85728 13.9253C6.29726 13.3799 6.53808 12.7008 6.54001 12C6.53204 11.4884 6.38555 10.9886 6.11612 10.5537C5.84668 10.1188 5.46439 9.76501 5.0099 9.53008C4.55541 9.29514 4.04574 9.1878 3.5351 9.21948C3.02447 9.25116 2.53197 9.42068 2.11001 9.71ZM3.90001 13.91C3.74527 13.9415 3.5879 13.9582 3.43001 13.96C3.28502 13.9641 3.1402 13.9472 3.00001 13.91C2.55362 13.7915 2.16811 13.5095 1.92001 13.12C1.64906 12.7371 1.54116 12.2624 1.62001 11.8C1.7468 11.2211 2.07671 10.7067 2.55001 10.35C2.83964 10.1192 3.1907 9.97858 3.55958 9.94561C3.92845 9.91264 4.29889 9.98877 4.62486 10.1645C4.95084 10.3403 5.21799 10.608 5.39313 10.9343C5.56828 11.2606 5.64369 11.6312 5.61001 12C5.59384 12.4682 5.41379 12.9159 5.10127 13.265C4.78876 13.6141 4.36362 13.8423 3.90001 13.91Z" fill="black"/>
<path d="M2.57001 18.53C1.8065 18.8819 1.19072 19.4906 0.830007 20.25C0.533148 20.8362 0.431532 21.5019 0.540007 22.15C0.635067 22.6316 0.892804 23.0658 1.27001 23.38C1.6425 23.6525 2.06924 23.8418 2.52128 23.9349C2.97332 24.0281 3.44011 24.023 3.89001 23.92C4.34703 23.8498 4.77932 23.6667 5.14775 23.3873C5.51618 23.108 5.8091 22.7411 6.00001 22.32C6.24522 21.6966 6.24522 21.0034 6.00001 20.38C5.00001 17.49 2.82001 18.41 2.57001 18.53ZM5.15001 22C4.99581 22.2528 4.78222 22.4643 4.5278 22.6159C4.27337 22.7675 3.98579 22.8547 3.69001 22.87C3.39755 22.9318 3.09521 22.9298 2.80357 22.8643C2.51193 22.7987 2.23785 22.671 2.00001 22.49C1.88461 22.3955 1.78964 22.2785 1.72088 22.1461C1.65211 22.0137 1.61099 21.8687 1.60001 21.72C1.56517 21.3597 1.61659 20.9964 1.75001 20.66C1.96551 20.072 2.37457 19.5748 2.91001 19.25C4.49001 18.37 5.16001 20.35 5.24001 20.63C5.3848 21.0815 5.35263 21.5712 5.15001 22Z" fill="black"/>
</g>
<defs>
<clipPath id="clip0_1030_2271">
<rect width="24" height="24" fill="white"/>
</clipPath>
</defs>
</svg>
